<svg id="Layer_1" data-name="Layer 1" xmlns="http://www.w3.org/2000/svg" viewBox="0 0 300 300"><defs><style>.cls-1{fill:#74bf4e;fill-rule:evenodd;}.cls-2{fill:#afd579;}</style></defs><title>ENGAGER_ICON_300</title><path class="cls-1" d="M253.82,157.19L71.46,236,152.29,96.92l101.52,43.89q4,4.11,3.37,8.16Q257.93,153.08,253.82,157.19Zm-134.09-12L71.46,62l77.19,33.44Z"/><path class="cls-2" d="M150,300c-41.17,0-76.84-14.79-106-44S0,191.18,0,150,14.79,73.13,44,44,108.79,0,150,0,226.87,14.79,256,44s44,64.83,44,106S285.21,226.87,256,256,191.18,300,150,300Zm0-288.46c-38,0-70.92,13.65-97.85,40.58S11.54,112,11.54,150s13.65,71,40.58,97.92S112,288.46,150,288.46s71-13.65,97.92-40.58S288.46,188,288.46,150,274.81,79,247.88,52.12h0C221,25.19,188,11.54,150,11.54Z"/></svg>